<?xml version="1.0" standalone="no"?>
<!DOCTYPE svg PUBLIC "-//W3C//DTD SVG 20010904//EN"
 "http://www.w3.org/TR/2001/REC-SVG-20010904/DTD/svg10.dtd">
<svg version="1.0" xmlns="http://www.w3.org/2000/svg"
 width="512.000000pt" height="512.000000pt" viewBox="0 0 512.000000 512.000000"
 preserveAspectRatio="xMidYMid meet">
<metadata>
Created by potrace 1.11, written by Peter Selinger 2001-2013
</metadata>
<g transform="translate(0.000000,512.000000) scale(0.100000,-0.100000)"
fill="#000000" stroke="none">
<path d="M2371 4407 c-96 -160 -185 -310 -199 -332 -30 -51 -170 -285 -232
-390 -50 -85 -204 -342 -274 -460 -24 -38 -49 -81 -57 -95 -7 -14 -23 -41 -35
-60 -24 -40 -194 -325 -209 -352 -30 -52 -111 -188 -175 -293 -40 -66 -80
-133 -90 -150 -37 -65 -244 -412 -268 -450 -15 -22 -33 -53 -42 -70 -9 -16
-51 -88 -94 -160 -94 -158 -157 -264 -384 -645 -96 -162 -199 -334 -229 -383
-29 -48 -53 -91 -53 -96 0 -5 -7 -14 -15 -21 -8 -7 -15 -16 -15 -21 0 -5 1098
-9 2560 -9 1766 0 2560 3 2560 10 0 6 -8 23 -18 38 -25 36 -110 177 -137 227
-12 22 -69 117 -125 210 -57 94 -113 187 -124 207 -30 54 -297 503 -326 548
-5 8 -19 31 -30 50 -11 19 -24 42 -30 50 -40 63 -110 181 -110 185 0 2 -22 39
-49 82 -26 43 -76 125 -109 183 -58 101 -137 233 -209 350 -19 30 -96 161
-172 290 -77 129 -150 253 -163 275 -14 22 -105 175 -203 340 -98 165 -231
388 -295 495 -64 107 -119 202 -123 210 -4 8 -30 51 -57 95 -27 44 -66 109
-86 145 -21 36 -53 87 -71 115 -18 27 -33 53 -33 57 0 21 -73 118 -88 118 -12
0 -71 -91 -191 -293z m222 -1074 c-4 -503 -7 -563 -30 -563 -14 0 -15 19 -10
163 4 89 10 314 13 500 5 254 10 337 19 337 10 0 11 -99 8 -437z m-420 161
c20 -66 36 -120 61 -209 24 -84 63 -215 93 -313 14 -45 23 -85 20 -89 -13 -12
-37 21 -43 59 -4 21 -11 41 -15 44 -5 3 -9 14 -9 24 0 11 -6 39 -14 62 -22 71
-67 221 -76 258 -5 19 -21 72 -35 117 -28 92 -31 117 -12 111 6 -3 20 -31 30
-64z m872 34 c-6 -30 -24 -93 -45 -158 -4 -14 -13 -43 -19 -65 -16 -60 -57
-199 -88 -300 -19 -60 -33 -91 -44 -93 -14 -3 -13 8 8 75 28 89 55 181 79 268
9 33 20 71 24 85 10 30 32 107 51 173 16 55 45 68 34 15z m-643 -254 c12 -65
49 -292 67 -407 5 -32 4 -46 -3 -44 -16 5 -32 69 -51 202 -9 66 -21 131 -25
145 -5 14 -12 54 -16 89 -5 51 -4 63 7 59 8 -3 17 -22 21 -44z m385 4 c-17
-151 -60 -384 -76 -417 -12 -23 -36 -28 -26 -5 9 22 18 75 64 374 10 65 20 90
33 90 6 0 8 -18 5 -42z m-699 -199 c36 -128 36 -129 18 -129 -9 0 -18 12 -22
28 -3 15 -16 61 -29 102 -13 41 -21 78 -18 83 13 21 29 -6 51 -84z m1002 61
c0 -16 -4 -39 -9 -52 -5 -13 -17 -49 -27 -80 -10 -34 -22 -58 -30 -58 -8 0
-14 2 -14 4 0 4 28 99 52 179 13 44 28 48 28 7z m-763 -963 c9 -34 22 -50 60
-77 26 -19 53 -39 58 -45 6 -6 30 -27 55 -47 25 -20 59 -48 75 -62 17 -14 35
-30 42 -36 7 -5 15 -10 19 -10 13 0 77 75 90 107 25 59 18 103 -27 162 -27 36
-35 51 -22 46 10 -4 33 -11 51 -17 36 -10 96 -43 125 -66 9 -9 20 -13 23 -9 8
8 8 47 -1 75 -7 22 -6 22 79 22 51 0 86 -4 86 -10 0 -5 -19 -10 -43 -10 -30 0
-50 -6 -65 -20 -22 -21 -22 -25 -22 -325 0 -217 -3 -305 -11 -305 -9 0 -82 55
-125 95 -6 5 -84 71 -174 145 -90 74 -185 154 -210 178 -26 23 -52 42 -58 42
-8 0 -12 -66 -14 -222 l-3 -223 -50 0 -49 0 3 290 3 290 -31 32 c-17 18 -31
35 -31 38 0 3 35 5 78 5 l78 0 11 -43z m1488 -545 c28 -8 59 -19 70 -23 11 -4
40 -13 64 -21 43 -13 68 -38 38 -38 -8 0 -55 13 -104 29 -48 15 -109 34 -135
42 -37 10 -45 16 -36 26 6 8 20 11 32 7 12 -3 44 -13 71 -22z m-2417 6 c-3 -7
-38 -23 -79 -36 -41 -13 -82 -27 -91 -32 -9 -5 -36 -13 -59 -16 -79 -13 -37
18 77 56 119 40 158 47 152 28z m2522 -248 c74 -23 144 -46 155 -50 11 -5 62
-21 112 -37 51 -15 91 -32 89 -38 -4 -12 -52 -10 -81 4 -11 5 -81 28 -155 51
-74 23 -144 46 -155 51 -41 16 -278 89 -291 89 -7 0 -16 5 -20 11 -15 26 22
23 114 -7 53 -17 158 -51 232 -74z m-2380 85 c10 -12 10 -15 -3 -15 -16 0 -92
-23 -132 -39 -11 -5 -47 -17 -80 -26 -33 -10 -69 -21 -80 -26 -11 -4 -81 -26
-155 -49 -74 -22 -142 -45 -150 -49 -9 -5 -30 -12 -48 -16 -24 -5 -32 -3 -32
8 0 9 31 24 88 42 48 15 137 43 197 62 61 20 119 39 130 43 23 10 237 78 246
79 4 1 12 -6 19 -14z m2085 -120 c134 -60 153 -69 222 -101 39 -19 76 -34 82
-34 6 0 11 -7 11 -15 0 -20 -22 -19 -62 3 -18 10 -53 26 -78 37 -25 10 -85 37
-135 60 -49 23 -108 50 -130 60 -50 23 -48 22 -40 34 6 11 11 10 130 -44z
m-2000 35 c5 -9 -45 -36 -180 -96 -22 -9 -82 -37 -133 -61 -95 -44 -122 -51
-122 -33 0 8 119 69 219 111 18 8 67 31 110 51 82 40 97 43 106 28z m1862
-101 c62 -43 307 -214 414 -288 36 -25 120 -83 187 -129 84 -57 119 -88 115
-98 -3 -7 -7 -14 -9 -14 -3 0 -66 44 -142 98 -75 54 -195 139 -267 187 -71 49
-161 112 -200 140 -38 29 -96 69 -128 89 -32 20 -55 41 -52 46 10 16 23 12 82
-31z m-1767 23 c0 -5 -17 -20 -37 -33 -53 -35 -329 -228 -458 -319 -116 -83
-287 -200 -290 -200 -3 0 -5 8 -5 18 0 10 32 38 83 71 45 30 109 74 142 98 56
41 225 160 440 309 83 58 125 76 125 56z m1700 -147 c47 -48 133 -129 193
-183 97 -87 120 -117 89 -117 -6 0 -50 38 -99 85 -48 47 -134 127 -190 179
-96 88 -121 121 -90 121 7 0 51 -38 97 -85z m-1606 66 c3 -5 -18 -30 -47 -56
-28 -27 -97 -91 -152 -144 -181 -173 -184 -176 -196 -164 -7 7 30 48 128 140
266 251 256 243 267 224z m1493 -137 c32 -40 151 -183 265 -320 147 -175 205
-251 197 -259 -7 -7 -21 2 -44 30 -36 42 -246 294 -270 323 -7 9 -64 77 -125
150 -77 91 -110 138 -106 149 8 19 7 20 83 -73z m-1404 63 c2 -7 -78 -111
-180 -232 -101 -121 -219 -262 -261 -314 -43 -52 -83 -96 -90 -99 -14 -4 -17
34 -2 43 8 5 64 70 257 301 18 22 83 101 145 176 62 75 116 137 119 137 4 1 9
-5 12 -12z m1245 -110 c23 -34 56 -74 190 -231 75 -89 97 -126 73 -126 -9 0
-22 15 -121 135 -30 37 -85 103 -122 146 -68 80 -74 90 -61 102 11 12 17 8 41
-26z m-1125 11 c2 -7 -12 -32 -32 -54 -20 -23 -61 -72 -91 -109 -30 -37 -60
-72 -65 -79 -6 -6 -32 -37 -59 -68 -48 -58 -70 -72 -64 -43 3 18 289 365 299
365 4 0 9 -6 12 -12z"/>
<path d="M2813 1956 c-23 -13 -61 -26 -86 -30 -24 -4 -53 -13 -63 -21 -21 -17
-26 -10 71 -90 20 -16 59 -50 86 -74 27 -24 52 -41 56 -38 3 4 6 66 7 139 1
151 0 153 -71 114z"/>
</g>
</svg>
